<svg xmlns="http://www.w3.org/2000/svg" width="24" height="26"><path fill="#006a4e" d="M.513 13.216l.035-.7 4.01-.037c.29-4.195 3.114-7.277 6.983-8.009L11.55.51c.321 0 .21.005.554.005l-.017 12.571zm11.023-7.89c-2.708.853-3.092 5.413-3.14 7.07l3.038.019z"/><path fill="#006a4e" d="M23.487 13.216c-.015-1.532-.035.708-.035-.7l-4.01-.037c-.29-4.195-3.114-7.277-6.983-8.009L12.45.51l-.553.005.017 12.571c3.98 0 7.494.13 11.573.13zm-11.023-7.89c2.708.853 3.091 5.413 3.141 7.07l-3.039.019z"/><path fill="#006a4e" d="M.513 12.788c.015 1.532.035-.708.035.699l4.01.038c.289 4.194 3.114 7.276 6.983 8.008l.008 3.962.554-.006-.017-12.571zm11.023 7.89c-2.708-.854-3.092-5.413-3.141-7.071l3.04-.018z"/><path fill="#006a4e" d="M23.487 12.788l-.035.699-4.011.038c-.289 4.194-3.113 7.276-6.982 8.008l-.009 3.962-.553-.006.017-12.571c3.98 0 7.494-.13 11.573-.13zm-11.023 7.89c2.708-.854 3.09-5.413 3.141-7.071l-3.04-.018z"/></svg>